<?xml version="1.0" encoding="UTF-8" standalone="no"?>
<!DOCTYPE svg PUBLIC "-//W3C//DTD SVG 1.1//EN" "http://www.w3.org/Graphics/SVG/1.1/DTD/svg11.dtd">
<svg width="100%" height="100%" viewBox="0 0 1049 1123" version="1.1" xmlns="http://www.w3.org/2000/svg" xmlns:xlink="http://www.w3.org/1999/xlink" xml:space="preserve" xmlns:serif="http://www.serif.com/" style="fill-rule:evenodd;clip-rule:evenodd;stroke-linejoin:round;stroke-miterlimit:2;">
    <g transform="matrix(1,0,0,1,-6567.81,-328.181)">
        <g id="Artboard2" transform="matrix(1.32945,0,0,1,-1143.43,0)">
            <rect x="5227.08" y="0" width="5192.89" height="3507.87" style="fill:none;"/>
            <g id="C" transform="matrix(0.752191,0,0,1,5320.2,-68.7106)">
                <path d="M1025.56,1131.88L1166.09,1130.95L1166.09,1519.38C1166.09,1519.38 1071.97,1518.27 993.31,1481.91C914.65,1445.55 897.211,1432.19 877.546,1418.84C857.881,1405.48 800.631,1363.09 770.919,1321.06C741.207,1279.02 719.217,1262.1 686.38,1183.96C653.542,1105.84 659.204,1121.12 642.219,1015.82C625.234,910.51 665.998,763.308 714.688,673.855C763.377,584.402 922.533,411.748 1166.09,396.891C1166.03,581.636 1166.09,781.429 1166.09,781.429L1025.56,781.429L1025.56,572.627C1025.56,572.627 777.027,683.257 784.274,952.718C791.521,1222.18 936.498,1284.13 1025.56,1339.81"/>
            </g>
            <g id="U" transform="matrix(0.76302,0,0,1.00746,4730.6,-575.986)">
                <path d="M2010.11,897.475C2010.11,897.475 2086.27,898.998 2146.59,926.218C2146.53,988.416 2146.59,1831.17 2146.59,1831.17C2146.59,1831.17 2231.03,1796.47 2301.7,1707.8C2301.7,1589.55 2301.7,1009.83 2301.7,1009.83C2301.7,1009.83 2367.72,1051.26 2435.22,1149.65C2435.24,1273.7 2435.22,1762.45 2435.22,1762.45C2435.22,1762.45 2292.79,1995.45 2010.11,2011.66C2010.1,1871.66 2010.11,897.475 2010.11,897.475Z" style="fill:rgb(1,175,238);"/>
            </g>
        </g>
    </g>
</svg>


