<?xml version="1.0" standalone="no"?>
<!DOCTYPE svg PUBLIC "-//W3C//DTD SVG 20010904//EN"
 "http://www.w3.org/TR/2001/REC-SVG-20010904/DTD/svg10.dtd">
<svg version="1.0" xmlns="http://www.w3.org/2000/svg"
 width="415.000000pt" height="397.000000pt" viewBox="0 0 415.000000 397.000000"
 preserveAspectRatio="xMidYMid meet">

<g transform="translate(0.000000,397.000000) scale(0.100000,-0.100000)"
fill="#000000" stroke="none">
<path d="M0 1985 l0 -1985 2075 0 2075 0 0 1985 0 1985 -2075 0 -2075 0 0
-1985z m2085 1005 l0 -525 -185 0 -185 0 -3 278 c-3 320 9 296 -110 227 -293
-170 -490 -456 -552 -802 -52 -290 10 -584 175 -838 62 -94 228 -262 320 -321
66 -44 148 -89 159 -89 3 0 7 125 8 277 l3 278 185 0 185 0 0 -525 0 -525 -45
3 c-163 11 -364 70 -542 158 -407 201 -716 590 -817 1031 -119 515 24 1040
387 1425 206 219 495 380 801 448 90 20 149 28 191 26 l25 -1 0 -525z m370
500 c39 -5 105 -20 148 -32 l77 -22 0 -1253 c0 -1080 2 -1254 14 -1259 17 -7
137 61 216 121 61 47 145 129 196 191 l34 41 2 959 3 959 130 -130 c72 -71
149 -158 173 -193 l42 -63 0 -840 0 -840 -60 -79 c-160 -210 -332 -351 -565
-465 -150 -74 -324 -126 -467 -140 l-68 -7 0 1537 0 1537 28 -6 c15 -3 59 -10
97 -16z"/>
</g>
</svg>
