<?xml version="1.0" standalone="no"?>
<!DOCTYPE svg PUBLIC "-//W3C//DTD SVG 20010904//EN"
 "http://www.w3.org/TR/2001/REC-SVG-20010904/DTD/svg10.dtd">
<svg version="1.0" xmlns="http://www.w3.org/2000/svg"
 width="1867.000000pt" height="612.000000pt" viewBox="0 0 1867.000000 612.000000"
 preserveAspectRatio="xMidYMid meet">

<g transform="translate(0.000000,612.000000) scale(0.100000,-0.100000)"
fill="#000000" stroke="none">
<path d="M3690 5454 c-19 -2 -78 -9 -130 -15 -121 -14 -367 -76 -490 -124
-545 -213 -955 -567 -1249 -1077 -351 -610 -396 -1381 -120 -2030 261 -611
742 -1077 1364 -1321 555 -217 1295 -188 1815 71 l115 57 3 2086 2 2086 -122
58 c-299 141 -579 204 -938 210 -118 2 -231 1 -250 -1z"/>
<path d="M6162 3909 c-226 -34 -409 -200 -492 -449 -34 -103 -50 -214 -50
-361 0 -412 143 -676 418 -771 57 -19 87 -23 207 -23 125 0 150 3 235 28 52
16 129 46 171 67 84 41 187 113 196 136 10 27 -27 101 -83 163 -31 33 -62 61
-70 61 -7 0 -40 -17 -71 -37 -158 -101 -345 -134 -450 -80 -46 25 -100 88
-126 147 -37 85 -51 179 -50 340 2 233 40 369 121 443 23 20 45 37 50 37 4 1
27 5 52 10 60 11 147 -5 188 -37 64 -48 93 -118 107 -260 l7 -62 46 -8 c129
-21 226 7 261 75 64 125 16 310 -112 428 -129 120 -357 183 -555 153z"/>
<path d="M13490 3910 c-271 -35 -467 -244 -536 -570 -26 -123 -24 -372 3 -500
60 -279 188 -440 413 -516 44 -15 84 -19 200 -18 137 0 151 2 245 33 55 18
129 48 165 66 76 38 190 121 190 138 -1 45 -102 189 -145 209 -21 9 -31 7 -63
-14 -174 -115 -350 -151 -467 -93 -92 45 -144 130 -170 283 -27 154 -15 382
26 506 28 84 61 130 114 161 62 37 165 38 233 3 82 -42 132 -148 132 -279 l0
-57 43 -8 c23 -4 67 -7 99 -7 147 2 205 71 196 234 -13 230 -208 395 -503 429
-98 11 -94 11 -175 0z"/>
<path d="M7485 3895 c-98 -26 -166 -57 -226 -102 -138 -104 -228 -274 -260
-492 -17 -122 -7 -393 20 -501 51 -203 161 -349 322 -429 115 -57 205 -74 349
-68 187 8 322 61 427 168 136 139 199 311 210 575 19 459 -154 760 -485 845
-90 23 -279 25 -357 4z m285 -282 c69 -28 125 -101 154 -202 40 -136 40 -476
1 -605 -55 -180 -192 -263 -359 -216 -127 35 -190 176 -203 455 -11 241 29
431 112 517 67 72 192 93 295 51z"/>
<path d="M8655 3883 c-11 -2 -30 -6 -42 -9 l-23 -4 0 -769 0 -769 31 -6 c41
-8 227 -8 268 0 l31 6 0 375 c0 206 -5 451 -11 543 -14 224 -12 235 30 126 38
-100 446 -1034 456 -1045 9 -8 386 -8 408 1 16 7 17 54 17 784 l0 776 -114 -4
c-128 -3 -153 -14 -191 -79 -19 -32 -20 -52 -20 -404 0 -203 4 -440 8 -525 5
-93 5 -151 -1 -145 -5 6 -34 73 -65 150 -31 77 -139 331 -241 565 l-184 425
-39 7 c-41 7 -285 8 -318 1z"/>
<path d="M10235 3884 c-11 -3 -30 -7 -42 -10 l-23 -4 0 -769 0 -769 31 -6 c41
-8 227 -8 268 0 l31 6 0 360 c0 198 -5 435 -11 526 -6 92 -9 185 -7 206 3 38
5 34 45 -70 23 -60 132 -314 242 -564 l200 -455 43 -8 c51 -9 345 -3 371 8 16
7 17 51 15 779 l-3 771 -99 3 c-83 2 -105 0 -141 -18 -80 -39 -80 -39 -80
-480 0 -212 4 -448 8 -525 5 -89 5 -136 -1 -130 -6 6 -31 64 -58 130 -59 147
-430 1005 -439 1013 -7 8 -322 13 -350 6z"/>
<path d="M15542 3318 l3 -573 26 -77 c33 -97 76 -165 143 -225 223 -202 701
-189 897 24 29 32 67 90 86 128 60 126 63 167 63 755 l0 528 -31 6 c-40 8
-243 8 -291 0 l-37 -6 -3 -557 -3 -556 -23 -52 c-43 -93 -101 -126 -225 -125
-124 0 -194 47 -229 151 -8 25 -13 187 -17 526 l-6 490 -27 47 c-42 70 -87 88
-222 88 l-107 0 3 -572z"/>
<path d="M11745 3858 c-3 -13 -5 -329 -3 -703 3 -731 2 -711 56 -769 52 -55
60 -56 455 -56 249 0 375 4 398 12 90 30 128 89 137 211 l5 79 -346 -3 -347
-4 0 167 0 168 249 0 249 0 11 44 c14 58 14 155 -1 213 l-11 46 -249 -5 -248
-4 0 163 0 163 309 0 308 0 14 48 c13 47 17 222 4 241 -4 8 -163 11 -495 11
l-490 0 -5 -22z"/>
<path d="M14246 3843 c-3 -21 -6 -72 -6 -113 0 -41 3 -92 6 -112 l7 -38 188 0
189 0 0 -624 0 -623 38 -7 c48 -8 236 -8 285 0 l37 7 0 622 0 623 154 4 c137
3 158 5 183 24 49 36 65 79 60 164 -3 41 -8 83 -12 93 -7 16 -43 17 -565 17
l-557 0 -7 -37z"/>
</g>
</svg>
